<svg width="74" height="74" viewBox="0 0 74 74" fill="none" xmlns="http://www.w3.org/2000/svg">
<path d="M73.32 36.66C73.32 36.91 73.14 37.12 72.89 37.15C44.68 41.34 41.34 44.69 37.15 72.89C37.11 73.13 36.9 73.32 36.66 73.32C36.42 73.32 36.2 73.14 36.17 72.89C31.98 44.68 28.63 41.34 0.429999 37.15C0.189999 37.11 0 36.9 0 36.66C0 36.42 0.179999 36.2 0.429999 36.17C28.64 31.98 31.98 28.63 36.17 0.43C36.21 0.19 36.42 0 36.66 0C36.9 0 37.12 0.18 37.15 0.43C41.34 28.64 44.69 31.98 72.89 36.17C73.13 36.21 73.32 36.42 73.32 36.66Z" fill="#E2B714"/>
</svg>
